<?xml version="1.0" encoding="UTF-8"?>
<svg id="Layer_1" data-name="Layer 1" xmlns="http://www.w3.org/2000/svg" viewBox="0 0 683.51 789.03">
  <defs>
    <style>
      .cls-1 {
        fill: #cb2527;
      }

      .cls-2 {
        fill: #040404;
      }
    </style>
  </defs>
  <g id="Logo">
    <path id="R_Top_Hex" data-name="R + Top Hex" class="cls-2" d="M683.51,197.97h-98.53L341.76,57.45,50.48,225.87h141.24c139.17,0,131.53,191.81,0,191.81l96.61,145.96h-60.14l-129.4-193.84h96.92c70.81,2.6,64.95-99.68-5.35-94.53l-190.36.02v-77.59l1.43-1.26L341.76,0l341.75,197.97Z"/>
    <polygon id="Bottom_Hex" data-name="Bottom Hex" class="cls-1" points=".54 592.1 .54 324.69 49.4 324.69 49.93 563.64 341.76 731.67 584.18 592.1 681.9 592.63 341.66 789.03 .54 592.1"/>
    <polygon id="A" class="cls-2" points="464.45 225.89 604.05 563.64 550.62 563.64 430.89 276.37 316.25 553.43 282.67 503.98 381.13 266.33 341.49 225.89 464.45 225.89"/>
    <rect id="I" class="cls-2" x="633.58" y="225.89" width="49.93" height="337.75"/>
  </g>
</svg>